#N canvas 352 113 778 450 10;
#X obj 35 10 inlet;
#X obj 35 130 - \$1;
#X obj 35 352 + \$3;
#X obj 292 121 loadbang;
#X obj 292 167 t b b;
#X obj 292 261 -;
#X obj 35 302 *;
#X obj 292 143 t b b;
#X obj 412 161 t b b;
#X obj 412 266 -;
#X obj 35 374 outlet;
#X obj 292 284 /;
#X obj 292 239 \$4;
#X obj 319 239 \$3;
#X obj 412 233 \$2;
#X obj 439 233 \$1;
#X obj 201 53 s \$0-from_low;
#X obj 446 207 r \$0-from_low;
#X obj 56 108 r \$0-from_low;
#X obj 181 74 s \$0-from_high;
#X obj 424 185 r \$0-from_high;
#X obj 162 10 inlet from_low;
#X obj 305 10 inlet from_high;
#X obj 332 53 s \$0-from_high;
#X obj 326 214 r \$0-to_low;
#X obj 304 192 r \$0-to_high;
#X obj 443 32 t b f;
#X obj 443 74 s \$0-to_high;
#X obj 470 53 s \$0-to_low;
#X obj 550 32 s \$0-to_high;
#X obj 56 330 r \$0-to_low;
#X obj 162 32 t b b f;
#X obj 162 95 s \$0-to_high;
#X obj 443 10 inlet to_low;
#X obj 550 10 inlet to_high;
#X obj 305 32 t b f;
#X obj 305 74 s \$0-to_high;
#X connect 0 0 1 0;
#X connect 1 0 6 0;
#X connect 2 0 10 0;
#X connect 3 0 7 0;
#X connect 4 0 12 0;
#X connect 4 1 13 0;
#X connect 5 0 11 0;
#X connect 6 0 2 0;
#X connect 7 0 4 0;
#X connect 7 1 8 0;
#X connect 8 0 14 0;
#X connect 8 1 15 0;
#X connect 9 0 11 1;
#X connect 11 0 6 1;
#X connect 12 0 5 0;
#X connect 13 0 5 1;
#X connect 14 0 9 0;
#X connect 15 0 9 1;
#X connect 17 0 15 0;
#X connect 18 0 1 1;
#X connect 20 0 14 0;
#X connect 21 0 31 0;
#X connect 22 0 35 0;
#X connect 24 0 13 0;
#X connect 25 0 12 0;
#X connect 26 0 27 0;
#X connect 26 1 28 0;
#X connect 30 0 2 1;
#X connect 31 0 32 0;
#X connect 31 1 19 0;
#X connect 31 2 16 0;
#X connect 33 0 26 0;
#X connect 34 0 29 0;
#X connect 35 0 36 0;
#X connect 35 1 23 0;
